<?xml version="1.0" encoding="UTF-8" standalone="no"?>
<!DOCTYPE svg PUBLIC "-//W3C//DTD SVG 1.1//EN" "http://www.w3.org/Graphics/SVG/1.1/DTD/svg11.dtd">
<svg version="1.1" xmlns="http://www.w3.org/2000/svg" xmlns:xlink="http://www.w3.org/1999/xlink" preserveAspectRatio="xMidYMid meet" viewBox="0 0 64 64" width="64" height="64"><defs><path d="M64 32C64 49.66 49.66 64 32 64C14.34 64 0 49.66 0 32C0 14.34 14.34 0 32 0C49.66 0 64 14.34 64 32Z" id="bdwoHjp2x"></path><path d="M22.2 34.46L22.2 54.51L14.77 54.51L14.77 9.71L22.2 9.71L22.2 29.73L20.25 32.11L20.25 32.11L22.2 34.46Z" id="daVA3Zeio"></path><path d="M49.23 54.55L39.88 54.55L21.33 32.15L39.88 9.55L49.23 9.55L29.48 32.15L49.23 54.55Z" id="cvvdZRk4A"></path></defs><g><g><g><use xlink:href="#bdwoHjp2x" opacity="1" fill="#1b262c" fill-opacity="1"></use><g><use xlink:href="#bdwoHjp2x" opacity="1" fill-opacity="0" stroke="#1b262c" stroke-width="1" stroke-opacity="1"></use></g></g><g><use xlink:href="#daVA3Zeio" opacity="1" fill="#ffffff" fill-opacity="1"></use><g><use xlink:href="#daVA3Zeio" opacity="1" fill-opacity="0" stroke="#ffffff" stroke-width="1" stroke-opacity="1"></use></g></g><g><use xlink:href="#cvvdZRk4A" opacity="1" fill="#ffffff" fill-opacity="1"></use><g><use xlink:href="#cvvdZRk4A" opacity="1" fill-opacity="0" stroke="#ffffff" stroke-width="1" stroke-opacity="1"></use></g></g></g></g></svg>